<svg xmlns="http://www.w3.org/2000/svg" viewBox="0 0 112 112" enable-background="new 0 0 112 112"><circle fill="#ffffff" fill-opacity="0.25" cx="56" cy="56" r="56"/><circle fill="#445FA9" cx="56" cy="56" r="50"/><path fill="#ffffff" d="M49 68.5c-3.4 0-6.1 2.7-6.1 6.1s2.7 6.1 6.1 6.1c3.4 0 6.1-2.7 6.1-6.1s-2.8-6.1-6.1-6.1z"/><path fill="#ffffff" d="M74.9 74.6c0-3.4-2.7-6.1-6.1-6.1-3.4 0-6.1 2.7-6.1 6.1s2.7 6.1 6.1 6.1 6.1-2.8 6.1-6.1z"/><path fill="#ffffff" d="M83.9 42.8c-.3-.3-.7-.5-1.1-.5h-43.3l-1.4-5.7c-.7-3-3.4-5.2-6.6-5.2h-2.3c-.7 0-1.4.6-1.4 1.4 0 .8.6 1.4 1.4 1.4h2.3c1.9 0 3.5 1.3 3.9 3.1l5.6 22.7c.7 3.1 3.5 5.2 6.6 5.2h25.1c3 0 5.7-2 6.5-4.9l4.9-16.3c.1-.4 0-.9-.2-1.2z"/></svg>